<svg id="Capa_1" enable-background="new 0 0 512 512" height="512" viewBox="0 0 512 512" width="512" xmlns="http://www.w3.org/2000/svg"><g><path d="m256 101c-85.467 0-155 69.533-155 155s69.533 155 155 155 155-69.533 155-155-69.533-155-155-155zm0 280c-23.756 0-45.985-6.663-64.918-18.216 1.682-34.353 30.155-61.784 64.918-61.784s63.236 27.431 64.918 61.784c-18.933 11.553-41.162 18.216-64.918 18.216zm-35-145c0-19.299 15.701-35 35-35s35 15.701 35 35-15.701 35-35 35-35-15.701-35-35zm126.629 104.927c-6.888-25.148-23.871-46.164-46.307-58.396 12.126-11.815 19.678-28.303 19.678-46.531 0-35.841-29.159-65-65-65s-65 29.159-65 65c0 18.228 7.552 34.716 19.678 46.531-22.435 12.233-39.42 33.247-46.308 58.395-20.695-22.313-33.37-52.165-33.37-84.926 0-68.925 56.075-125 125-125s125 56.075 125 125c0 32.761-12.675 62.614-33.371 84.927z"/><path d="m497 201h-22.785c-5.339-21.312-13.722-41.546-25.026-60.407l16.115-16.114c2.813-2.813 4.394-6.628 4.394-10.607 0-3.978-1.581-7.793-4.394-10.606l-56.569-56.569c-2.813-2.813-6.628-4.394-10.606-4.394-3.979 0-7.794 1.581-10.607 4.394l-16.114 16.115c-18.86-11.305-39.097-19.688-60.408-25.027v-22.785c0-8.284-6.716-15-15-15h-80c-8.284 0-15 6.716-15 15v22.785c-21.311 5.338-41.548 13.722-60.407 25.026l-16.114-16.115c-2.813-2.813-6.628-4.394-10.607-4.394s-7.793 1.581-10.606 4.394l-56.568 56.569c-5.858 5.858-5.858 15.355 0 21.213l16.114 16.115c-11.305 18.86-19.688 39.094-25.027 60.407h-22.785c-8.284 0-15 6.716-15 15v80c0 8.284 6.716 15 15 15h22.785c5.339 21.313 13.722 41.547 25.026 60.407l-16.114 16.115c-5.858 5.858-5.858 15.355 0 21.213l56.568 56.568c5.857 5.858 15.355 5.858 21.213 0l16.115-16.114c18.86 11.303 39.097 19.687 60.407 25.025v22.786c0 8.284 6.716 15 15 15h80c8.284 0 15-6.716 15-15v-22.786c21.31-5.338 41.547-13.722 60.407-25.025l16.115 16.114c5.857 5.858 15.355 5.858 21.213 0l56.569-56.568c2.813-2.813 4.394-6.628 4.394-10.606s-1.581-7.793-4.394-10.607l-16.115-16.114c11.304-18.861 19.687-39.095 25.025-60.407h22.786c8.284 0 15-6.716 15-15v-80c0-8.285-6.716-15.001-15-15.001zm-15 80h-19.821c-7.189 0-13.367 5.1-14.729 12.159-4.992 25.877-15.019 50.082-29.803 71.941-4.027 5.954-3.264 13.928 1.818 19.01l14.018 14.018-35.355 35.355-14.018-14.018c-5.082-5.083-13.057-5.845-19.01-1.818-21.86 14.784-46.064 24.811-71.941 29.802-7.059 1.361-12.159 7.54-12.159 14.729v19.822h-50v-19.822c0-7.189-5.101-13.367-12.159-14.729-25.877-4.991-50.082-15.018-71.941-29.802-5.953-4.027-13.927-3.264-19.01 1.818l-14.018 14.018-35.355-35.355 14.018-14.018c5.083-5.083 5.845-13.056 1.818-19.01-14.784-21.858-24.811-46.062-29.803-71.941-1.362-7.059-7.54-12.159-14.729-12.159h-19.821v-50h19.821c7.189 0 13.367-5.1 14.729-12.159 4.992-25.878 15.019-50.083 29.803-71.941 4.027-5.954 3.265-13.928-1.818-19.01l-14.018-14.018 35.355-35.355 14.018 14.018c5.083 5.083 13.056 5.845 19.011 1.818 21.859-14.785 46.063-24.812 71.941-29.803 7.057-1.362 12.158-7.54 12.158-14.729v-19.821h50v19.821c0 7.189 5.101 13.367 12.159 14.729 25.877 4.991 50.082 15.018 71.941 29.803 5.955 4.028 13.927 3.265 19.011-1.818l14.018-14.018 35.355 35.355-14.018 14.018c-5.083 5.083-5.845 13.057-1.818 19.01 14.784 21.859 24.811 46.064 29.803 71.941 1.361 7.059 7.539 12.159 14.728 12.159h19.821z"/></g></svg>