<svg enable-background="new 0 0 24 24" height="512" viewBox="0 0 24 24" width="512" xmlns="http://www.w3.org/2000/svg"><path d="m6.5 9.5c-.552 0-1 .448-1 1v1.25h2v-1.25c0-.552-.448-1-1-1z"/><path d="m21.25 0h-18.5c-1.517 0-2.75 1.233-2.75 2.75v18.5c0 1.517 1.233 2.75 2.75 2.75h18.5c1.517 0 2.75-1.233 2.75-2.75v-18.5c0-1.517-1.233-2.75-2.75-2.75zm-12.25 15.25c0 .414-.336.75-.75.75s-.75-.336-.75-.75v-2h-2v2c0 .414-.336.75-.75.75s-.75-.336-.75-.75v-4.75c0-1.379 1.121-2.5 2.5-2.5s2.5 1.121 2.5 2.5zm6.25.75h-2c-1.517 0-2.75-1.233-2.75-2.75v-4.5c0-.414.336-.75.75-.75s.75.336.75.75v4.5c0 .689.561 1.25 1.25 1.25h2c.414 0 .75.336.75.75s-.336.75-.75.75zm4.5-6.5h-1.25v5.75c0 .414-.336.75-.75.75s-.75-.336-.75-.75v-5.75h-1.25c-.414 0-.75-.336-.75-.75s.336-.75.75-.75h4c.414 0 .75.336.75.75s-.336.75-.75.75z"/></svg>