<?xml version="1.0"?>
<svg xmlns="http://www.w3.org/2000/svg" xmlns:xlink="http://www.w3.org/1999/xlink" xmlns:svgjs="http://svgjs.com/svgjs" version="1.1" width="512" height="512" x="0" y="0" viewBox="0 0 512 512" style="enable-background:new 0 0 512 512" xml:space="preserve" class=""><g><g xmlns="http://www.w3.org/2000/svg"><path d="m181 316c41.353 0 75-33.647 75-75s-33.647-75-75-75-75 33.647-75 75 33.647 75 75 75zm-15-120h30v30h30v30h-60z" fill="#3982ab" data-original="#000000" style="" class=""/><path d="m181 421c99.412 0 181-80.588 181-180s-81.588-180-181-180-181 80.588-181 180 81.588 180 181 180zm0-285c57.891 0 105 47.109 105 105s-47.109 105-105 105-105-47.109-105-105 47.109-105 105-105z" fill="#3982ab" data-original="#000000" style="" class=""/><path d="m452 61.295v-.295c0-16.538 13.462-31 30-31v-30c-33.091 0-60 27.909-60 61v8.26c-17.977 10.968-30 31.8-30 54.948v116.792c0 115.979-95.021 210-211 210h-136c-24.853 0-45 21.147-45 46v15h301c99.412 0 181-81.588 181-181v-121.157c0-17.769 6.504-36.167 19.336-54.683 6.973-10.063 10.664-21.885 10.664-34.16 0-33.056-27.307-59.619-60-59.705z" fill="#3982ab" data-original="#000000" style="" class=""/></g></g></svg>
