<svg id="Capa_1" enable-background="new 0 0 511.989 511.989" height="512" viewBox="0 0 511.989 511.989" width="512" xmlns="http://www.w3.org/2000/svg"><g><path d="m498.119 213.641c1.896-6 2.874-12.245 2.874-18.66 0-16.567-6.449-32.137-18.157-43.835-11.703-11.711-27.271-18.161-43.839-18.161h-29.152c-34.185 0-61.996 27.812-61.996 61.997 0 6.773 1.079 13.357 3.192 19.661-1.134.807-2.212 1.708-3.216 2.711-4.704 4.705-7.295 10.964-7.295 17.625 0 13.736 11.18 24.911 24.921 24.911h2.012c1.062 31.024 26.612 55.939 57.885 55.939 31.278 0 56.831-24.915 57.893-55.939h2.018c6.663 0 12.922-2.591 17.626-7.295 4.704-4.705 7.295-10.96 7.295-17.616-.002-9.04-4.84-16.969-12.061-21.338zm-135.271-18.661c0-25.914 21.082-46.997 46.996-46.997h29.152c12.559 0 24.359 4.888 33.232 13.768 8.876 8.869 13.764 20.67 13.764 33.229 0 5.199-.829 10.25-2.466 15.077h-.237v-12.51c0-.048 0-.096-.001-.144-.139-13.288-10.992-24.055-24.312-24.055-13.406 0-24.313 10.907-24.313 24.313v1.488c0 5.135-4.178 9.313-9.312 9.313-5.136 0-9.313-4.178-9.313-9.313v-1.488c0-13.406-10.907-24.313-24.313-24.313-13.32 0-24.174 10.767-24.312 24.055-.001.048-.001.096-.001.144v12.51h-1.961c-.043 0-.087.003-.13.003-1.64-4.828-2.473-9.879-2.473-15.08zm-7.319 39.999c0-2.655 1.03-5.148 2.901-7.019 1.872-1.872 4.365-2.902 7.02-2.902h1.961v19.832h-1.961c-5.471-.001-9.921-4.447-9.921-9.911zm112.762 22.905c0 23.679-19.265 42.944-42.944 42.944-23.675 0-42.936-19.265-42.936-42.944v-60.223c0-5.135 4.178-9.313 9.313-9.313s9.313 4.178 9.313 9.313v1.488c0 13.406 10.907 24.313 24.313 24.313s24.312-10.907 24.312-24.313v-1.488c0-5.135 4.178-9.313 9.313-9.313s9.313 4.178 9.313 9.313v60.223zm23.985-15.896c-1.87 1.871-4.363 2.901-7.019 2.901h-1.967v-19.832h1.967c5.471 0 9.921 4.451 9.921 9.921 0 2.649-1.03 5.138-2.902 7.01z"/><path d="m419.695 237.375v-6.124c0-4.142-3.357-7.5-7.5-7.5s-7.5 3.358-7.5 7.5v6.124c0 4.142 3.357 7.5 7.5 7.5s7.5-3.358 7.5-7.5z"/><path d="m438.513 223.751c-4.143 0-7.5 3.358-7.5 7.5v6.124c0 4.142 3.357 7.5 7.5 7.5s7.5-3.358 7.5-7.5v-6.124c0-4.142-3.357-7.5-7.5-7.5z"/><path d="m432.319 256.39c-4.295 2.633-9.635 2.632-13.932 0-3.531-2.164-8.149-1.055-10.313 2.477s-1.055 8.149 2.478 10.313c4.565 2.797 9.684 4.196 14.803 4.196 5.118 0 10.237-1.399 14.803-4.196 3.531-2.165 4.64-6.782 2.476-10.314-2.165-3.531-6.783-4.639-10.315-2.476z"/><path d="m167.724 291.009v-53.828c0-16.984-13.173-31.406-30.141-32.134-9.792-.42-18.663 3.654-24.721 10.326-5.324-6.325-13.292-10.354-22.188-10.354h-28.82c-.748 0-1.498.019-2.232.058-3.847.201-7.072 3.137-7.321 6.981-.297 4.594 3.467 8.282 7.925 8.008.535-.031 1.078-.047 1.629-.047h28.82c7.732 0 14 6.268 14 14v2.527 4.701c0 1.026-.26 2.026-.701 2.953-.017.036-.034.073-.051.11-5.719 12.694-17.66 21.429-31.583 21.429h-5.099c-.831 0-1.669.029-2.462.084-13.712.895-25.322 9.248-30.993 20.93h-2.212v-36.454c0-7.633 2.839-14.905 7.999-20.505 2.734-2.967 2.885-7.641.07-10.531-3.006-3.086-7.942-3.009-10.854.101-7.877 8.413-12.215 19.399-12.215 30.936v38.923c-2.639 1.251-5.07 2.958-7.194 5.082-4.93 4.919-7.623 11.483-7.569 18.461.111 14.271 12.124 25.605 26.396 25.605h1.899c.433 15.602 6.72 30.188 17.845 41.231 11.422 11.337 26.541 17.563 42.614 17.563.154 0 .311 0 .465-.001 5.181-.034 10.341-.744 15.334-2.109 25.577-6.983 43.66-30.09 44.687-56.683h2.499c6.901 0 13.383-2.688 18.248-7.564 4.873-4.873 7.557-11.354 7.557-18.248 0-9-4.631-16.931-11.631-21.551zm-150.914 21.548c0-2.887 1.124-5.599 3.17-7.641 2.04-2.04 4.753-3.163 7.641-3.163h2.471c-.012.387-.028.773-.028 1.163v20.454h-2.442c-5.962-.001-10.812-4.851-10.812-10.813zm119.292 23.421c0 20.846-13.853 39.188-33.691 44.604-3.739 1.022-7.601 1.554-11.485 1.579-12.191.115-23.733-4.599-32.407-13.208-8.676-8.611-13.454-20.085-13.454-32.307v-33.731c0-11.649 9.089-21.368 20.724-22.127.479-.033.968-.05 1.453-.05h4.768c14.888 0 28.6-6.589 37.828-17.559 1.367 1.946 2.907 3.781 4.607 5.484 5.989 5.989 13.497 9.908 21.657 11.398zm-11.047-77.916c-2.273-2.277-4.084-4.927-5.381-7.807v-13.709c0-9.114 7.415-16.528 16.529-16.528 9.11 0 16.521 7.415 16.521 16.528v50.207h-1.622v-13.515c0-4.142-3.358-7.5-7.5-7.5-7.01 0-13.598-2.728-18.547-7.676zm36.13 62.142c-2.036 2.041-4.748 3.165-7.635 3.165h-2.449v-21.616h2.449c5.958 0 10.804 4.847 10.804 10.804.001 2.887-1.123 5.601-3.169 7.647z"/><path d="m84.251 315.082v-8.051c0-4.142-3.358-7.5-7.5-7.5s-7.5 3.358-7.5 7.5v8.051c0 4.142 3.358 7.5 7.5 7.5s7.5-3.358 7.5-7.5z"/><path d="m104.415 299.531c-4.142 0-7.5 3.358-7.5 7.5v8.051c0 4.142 3.358 7.5 7.5 7.5s7.5-3.358 7.5-7.5v-8.051c0-4.142-3.358-7.5-7.5-7.5z"/><path d="m98.105 335.396c-4.639 2.843-10.404 2.843-15.043 0-3.533-2.166-8.149-1.056-10.313 2.476-2.165 3.532-1.056 8.149 2.476 10.313 4.737 2.903 10.047 4.354 15.359 4.354 5.311 0 10.623-1.452 15.359-4.354 3.532-2.164 4.64-6.782 2.476-10.313-2.165-3.531-6.782-4.641-10.314-2.476z"/><path d="m343.219 164.062v-80.509c0-46.071-37.481-83.553-83.552-83.553-46.076 0-83.562 37.482-83.562 83.553v80.509c0 4.142 3.358 7.5 7.5 7.5h21.463c2.698 4.486 5.97 8.669 9.785 12.455 12.006 11.917 27.897 18.46 44.792 18.46.162 0 .326 0 .488-.001 5.445-.036 10.869-.782 16.116-2.217 16.147-4.409 29.445-14.938 37.733-28.696h21.737c4.143-.001 7.5-3.358 7.5-7.501zm-34.945-25.9c0 22.258-14.794 41.843-35.979 47.627-3.993 1.092-8.118 1.66-12.267 1.687-13.03.087-25.347-4.912-34.609-14.105-9.265-9.196-14.368-21.449-14.368-34.501v-15.555c0-12.559 9.799-23.036 22.343-23.854.512-.036 1.039-.054 1.565-.054h5.046c15.823 0 30.38-7.092 40.067-18.868 1.512 2.214 3.234 4.296 5.152 6.217 6.362 6.362 14.36 10.495 23.049 12.006v39.4zm19.945 18.4h-7.612c1.739-5.866 2.667-12.05 2.667-18.4v-46.256c0-4.142-3.357-7.5-7.5-7.5-7.535 0-14.617-2.932-19.938-8.252-3.709-3.716-6.303-8.345-7.5-13.387-.751-3.164-3.456-5.484-6.698-5.744-3.224-.256-6.281 1.599-7.526 4.604-5.737 13.838-19.125 22.779-34.106 22.779h-5.046c-.875 0-1.753.03-2.577.088-20.373 1.329-36.331 18.381-36.331 38.82v15.555c0 6.076.861 12.015 2.495 17.693h-7.443v-73.009c0-37.8 30.757-68.553 68.562-68.553 37.8 0 68.553 30.753 68.553 68.553z"/><path d="m279.708 108.181c-2.205-.699-4.234-.206-6.156 1.154-1.985 1.406-2.721 3.815-2.721 6.248v8.521c0 4.142 3.357 7.5 7.5 7.5s7.5-3.358 7.5-7.5v-1.81c1.395-.382 2.922-.916 4.568-1.649 3.783-1.686 5.483-6.12 3.798-9.903-1.687-3.784-6.124-5.482-9.903-3.798-2.434 1.085-4.029 1.226-4.586 1.237z"/><path d="m267.852 145.977c-5.05 3.095-11.326 3.096-16.378 0-3.532-2.166-8.149-1.055-10.313 2.476-2.165 3.532-1.056 8.149 2.476 10.313 4.943 3.029 10.485 4.544 16.026 4.544 5.542 0 11.084-1.515 16.027-4.544 3.531-2.164 4.64-6.782 2.476-10.313-2.164-3.532-6.781-4.642-10.314-2.476z"/><path d="m248.496 124.104v-8.521c0-2.433-.735-4.842-2.721-6.248-1.921-1.36-3.948-1.855-6.156-1.155-.559-.011-2.152-.152-4.586-1.237-3.784-1.685-8.217.015-9.904 3.797-1.686 3.784.014 8.217 3.797 9.904 1.647.734 3.174 1.267 4.569 1.65v1.809c0 4.142 3.358 7.5 7.5 7.5s7.501-3.356 7.501-7.499z"/><path d="m137.033 418.969h-89.156c-17.024 0-30.874 13.85-30.874 30.874v31.272c0 17.024 13.85 30.874 30.874 30.874h89.156c17.024 0 30.874-13.85 30.874-30.874v-31.272c0-17.024-13.85-30.874-30.874-30.874zm15.874 62.146c0 8.753-7.121 15.874-15.874 15.874h-89.156c-8.753 0-15.874-7.121-15.874-15.874v-31.272c0-8.753 7.121-15.874 15.874-15.874h89.156c8.753 0 15.874 7.121 15.874 15.874z"/><path d="m469.932 340.621h-89.156c-17.023 0-30.873 13.85-30.873 30.874v109.621c0 17.024 13.85 30.874 30.873 30.874h89.156c17.023 0 30.873-13.85 30.873-30.874v-109.622c0-17.024-13.849-30.873-30.873-30.873zm15.873 140.494c0 8.752-7.121 15.874-15.873 15.874h-89.156c-8.752 0-15.873-7.121-15.873-15.874v-109.621c0-8.752 7.121-15.874 15.873-15.874h89.156c8.752 0 15.873 7.121 15.873 15.874z"/><path d="m304.244 212.289h-89.16c-17.021 0-30.87 13.848-30.87 30.87v237.96c0 17.022 13.848 30.87 30.87 30.87h89.16c17.021 0 30.87-13.848 30.87-30.87v-30.9c0-4.142-3.357-7.5-7.5-7.5s-7.5 3.358-7.5 7.5v30.9c0 8.751-7.119 15.87-15.87 15.87h-89.16c-8.75 0-15.87-7.119-15.87-15.87v-237.96c0-8.751 7.119-15.87 15.87-15.87h89.16c8.751 0 15.87 7.119 15.87 15.87v177.06c0 4.142 3.357 7.5 7.5 7.5s7.5-3.358 7.5-7.5v-177.06c0-17.022-13.849-30.87-30.87-30.87z"/></g></svg>