<svg width="512" height="512" viewBox="0 0 512 512" fill="none" xmlns="http://www.w3.org/2000/svg">
<path d="M474.899 99.3494C481.494 99.3494 486.441 102.647 486.441 109.243V402.757C486.441 409.353 481.494 412.651 474.899 412.651H36.277C29.6812 412.651 24.7343 409.353 24.7343 402.757V109.243C24.7343 102.647 29.6812 99.3494 36.277 99.3494H478.196H474.899ZM474.899 74.6151H36.277C16.4895 74.6151 0 89.4557 0 109.243V402.757C0 422.544 16.4895 437.385 36.277 437.385H475.723C495.51 437.385 512 422.544 512 402.757V109.243C511.175 89.4557 494.686 74.6151 474.899 74.6151Z" fill="white"/>
<path d="M432.85 364.831C426.254 364.831 420.483 359.06 420.483 352.464V158.712C420.483 152.116 426.254 146.345 432.85 146.345C439.446 146.345 445.217 152.116 445.217 158.712V352.464C445.217 359.884 439.446 364.831 432.85 364.831Z" fill="white"/>
<path d="M189.63 302.995C215.584 302.995 236.625 281.955 236.625 256C236.625 230.045 215.584 209.005 189.63 209.005C163.675 209.005 142.634 230.045 142.634 256C142.634 281.955 163.675 302.995 189.63 302.995Z" fill="white"/>
<path d="M321.546 302.995C347.501 302.995 368.541 281.955 368.541 256C368.541 230.045 347.501 209.005 321.546 209.005C295.591 209.005 274.551 230.045 274.551 256C274.551 281.955 295.591 302.995 321.546 302.995Z" fill="white"/>
</svg>
